<?xml version="1.0" encoding="UTF-8"?>
<svg version="1.1" xmlns="http://www.w3.org/2000/svg" width="462" height="75">
<path d="M0 0 C38.23764259 0 38.23764259 0 49 9 C54.50863781 15.90746045 56.58040848 24.56682648 56.37890625 33.28515625 C55.26593623 41.25952907 51.40982137 49.91821773 45 55 C37.88993228 59.3570495 31.24005601 60.87868547 23 61 C21.7617749 61.02054443 21.7617749 61.02054443 20.49853516 61.04150391 C15.80005295 61.10971696 11.1013224 61.1452165 6.40234375 61.1328125 C5.60304443 61.13168457 4.80374512 61.13055664 3.98022461 61.12939453 C2 61 2 61 0 60 C0 40.2 0 20.4 0 0 Z M16 16 C15.72095371 19.11038944 15.72095371 19.11038944 15.8046875 22.7578125 C15.8075174 23.42086395 15.81034729 24.08391541 15.81326294 24.76705933 C15.82446565 26.88655583 15.84956949 29.00563104 15.875 31.125 C15.88502972 32.56119182 15.89415559 33.99739025 15.90234375 35.43359375 C15.924405 38.95586628 15.95893506 42.47789203 16 46 C18.09224508 46.04565923 20.1847764 46.07833729 22.27734375 46.10546875 C24.02519165 46.13483521 24.02519165 46.13483521 25.80834961 46.16479492 C31.31040415 45.88070659 33.77371311 43.35885844 37.3125 39.4375 C40.28618326 35.14217974 40.37859292 31.07115251 40 26 C38.84287651 21.4766991 36.68872462 18.84339189 33 16 C24.00372746 13.12829747 24.00372746 13.12829747 16 16 Z " fill="#D5DADD" transform="translate(397,9)"/>
<path d="M0 0 C0.81739655 -0.00315216 1.63479309 -0.00630432 2.47695923 -0.009552 C3.35516327 -0.00752777 4.23336731 -0.00550354 5.13818359 -0.00341797 C6.04160492 -0.00437469 6.94502625 -0.00533142 7.87582397 -0.00631714 C9.78391591 -0.00699739 11.69201017 -0.00515392 13.60009766 -0.00097656 C16.53211614 0.00438629 19.4639823 -0.00093318 22.39599609 -0.00732422 C24.24755893 -0.00666365 26.09912168 -0.00538294 27.95068359 -0.00341797 C28.8329361 -0.0054422 29.7151886 -0.00746643 30.62417603 -0.009552 C36.79666279 0.01443623 36.79666279 0.01443623 37.91162109 1.12939453 C38.17321737 2.91406246 38.3716181 4.70821908 38.53662109 6.50439453 C38.63201172 7.48150391 38.72740234 8.45861328 38.82568359 9.46533203 C38.91162109 12.12939453 38.91162109 12.12939453 37.91162109 15.12939453 C28.67162109 15.12939453 19.43162109 15.12939453 9.91162109 15.12939453 C9.58162109 18.09939453 9.25162109 21.06939453 8.91162109 24.12939453 C9.6637085 24.12415771 10.4157959 24.1189209 11.19067383 24.11352539 C14.57681452 24.09282226 17.96294193 24.07975577 21.34912109 24.06689453 C22.533125 24.05851562 23.71712891 24.05013672 24.93701172 24.04150391 C26.06171875 24.03828125 27.18642578 24.03505859 28.34521484 24.03173828 C29.38734131 24.02650146 30.42946777 24.02126465 31.50317383 24.01586914 C33.91162109 24.12939453 33.91162109 24.12939453 34.91162109 25.12939453 C34.91162109 29.41939453 34.91162109 33.70939453 34.91162109 38.12939453 C26.33162109 38.12939453 17.75162109 38.12939453 8.91162109 38.12939453 C8.91162109 41.09939453 8.91162109 44.06939453 8.91162109 47.12939453 C9.78488037 47.12415771 10.65813965 47.1189209 11.55786133 47.11352539 C14.78751382 47.09651702 18.01714355 47.08396084 21.24682617 47.07446289 C22.64657338 47.06942374 24.04631529 47.06259237 25.44604492 47.05395508 C27.45407886 47.04187133 29.46215067 47.03669646 31.47021484 47.03173828 C33.28477173 47.02388306 33.28477173 47.02388306 35.13598633 47.01586914 C37.91162109 47.12939453 37.91162109 47.12939453 38.91162109 48.12939453 C39.01055049 50.2942025 39.0413321 52.46233238 39.03662109 54.62939453 C39.04048828 56.40830078 39.04048828 56.40830078 39.04443359 58.22314453 C38.91162109 61.12939453 38.91162109 61.12939453 37.91162109 62.12939453 C36.49937064 62.22226714 35.08253175 62.24686225 33.66723633 62.24291992 C32.75373413 62.24279907 31.84023193 62.24267822 30.89904785 62.24255371 C29.93253296 62.23743774 28.96601807 62.23232178 27.97021484 62.22705078 C27.08660278 62.2260437 26.20299072 62.22503662 25.29260254 62.22399902 C21.9780956 62.21874984 18.6636071 62.2047887 15.34912109 62.19189453 C7.94474609 62.17126953 0.54037109 62.15064453 -7.08837891 62.12939453 C-7.08837891 41.99939453 -7.08837891 21.86939453 -7.08837891 1.12939453 C-4.3698893 0.22323133 -2.79267635 0.00309154 0 0 Z " fill="#CCD2D6" transform="translate(351.08837890625,7.87060546875)"/>
<path d="M0 0 C0 18.81 0 37.62 0 57 C-3.465 57.495 -3.465 57.495 -7 58 C-11.15953601 52.64302181 -14.96753675 47.10156917 -18.70703125 41.4453125 C-21.3917896 37.39597202 -24.1294367 33.38327933 -26.875 29.375 C-27.35155029 28.67568359 -27.82810059 27.97636719 -28.3190918 27.25585938 C-28.76808838 26.60166016 -29.21708496 25.94746094 -29.6796875 25.2734375 C-30.27885986 24.39824463 -30.27885986 24.39824463 -30.89013672 23.50537109 C-32.05932731 21.84098473 -32.05932731 21.84098473 -34 20 C-34.33 32.21 -34.66 44.42 -35 57 C-37.97 57 -40.94 57 -44 57 C-44.17012446 51.45417421 -44.33035965 45.90817359 -44.48217773 40.36181641 C-44.534924 38.48251009 -44.59018262 36.60327227 -44.64819336 34.72412109 C-45.00590867 23.07193364 -44.99167401 11.62295706 -44 0 C-36.55786088 -0.41188597 -36.55786088 -0.41188597 -34.10131836 1.40185547 C-33.68503174 2.05041504 -33.26874512 2.69897461 -32.83984375 3.3671875 C-32.11982178 4.44129883 -32.11982178 4.44129883 -31.38525391 5.53710938 C-30.90749512 6.30861328 -30.42973633 7.08011719 -29.9375 7.875 C-29.16672119 9.04385742 -29.16672119 9.04385742 -28.38037109 10.23632812 C-27.36105019 11.78315001 -26.35194318 13.33675909 -25.35400391 14.89746094 C-23.68631898 17.48709357 -21.91774586 19.99572086 -20.125 22.5 C-17.01135652 26.95243367 -13.99087671 31.46438477 -11 36 C-10.03457982 31.88751617 -9.80510037 27.9484843 -9.68359375 23.73046875 C-9.66281265 23.04946609 -9.64203156 22.36846344 -9.62062073 21.66682434 C-9.55562122 19.50714492 -9.49647288 17.34735154 -9.4375 15.1875 C-9.3942675 13.71678544 -9.35065175 12.24608209 -9.30664062 10.77539062 C-9.19999141 7.18371283 -9.09858651 3.59190918 -9 0 C-7 -1 -7 -1 0 0 Z M-10 37 C-9 39 -9 39 -9 39 Z " fill="#D3DCDE" transform="translate(152,11)"/>
<path d="M0 0 C1.29663922 2.59327843 1.12003569 4.46408068 1.11352539 7.36767578 C1.11344986 8.48868683 1.11337433 9.60969788 1.11329651 10.76467896 C1.10813522 11.97928802 1.10297394 13.19389709 1.09765625 14.4453125 C1.0962413 15.68546112 1.09482635 16.92560974 1.09336853 18.20333862 C1.08871096 21.50118133 1.07972439 24.79897546 1.06866455 28.09680176 C1.05843731 31.46166387 1.05386809 34.82653308 1.04882812 38.19140625 C1.03778269 44.79428993 1.02103247 51.39714099 1 58 C-3.74316406 59.07275391 -3.74316406 59.07275391 -6.0546875 58.41796875 C-8.77273078 56.43674443 -10.26047624 54.10928563 -12.125 51.3125 C-12.5068042 50.74523193 -12.8886084 50.17796387 -13.28198242 49.59350586 C-14.53004232 47.73467712 -15.76494187 45.86748736 -17 44 C-17.88850756 42.67132939 -18.77783942 41.34320967 -19.66796875 40.015625 C-21.74680104 36.91103811 -23.81938275 33.80248639 -25.87744141 30.68408203 C-26.6348593 29.54779046 -27.40307477 28.41863254 -28.18115234 27.29638672 C-31 23.20738636 -31 23.20738636 -31 21 C-31.66 21 -32.32 21 -33 21 C-33.33 33.21 -33.66 45.42 -34 58 C-36.97 58 -39.94 58 -43 58 C-43 39.19 -43 20.38 -43 1 C-34 1 -34 1 -31.94140625 2.87890625 C-31.48636719 3.76449219 -31.03132812 4.65007813 -30.5625 5.5625 C-29.7271875 7.06490234 -29.7271875 7.06490234 -28.875 8.59765625 C-28.25625 9.72042969 -27.6375 10.84320313 -27 12 C-25.40326299 14.53338948 -23.73550379 17.01652024 -22.0625 19.5 C-21.48834351 20.36927124 -21.48834351 20.36927124 -20.90258789 21.25610352 C-17.10069543 26.97585524 -13.05187949 32.4286657 -9 38 C-8.67 25.79 -8.34 13.58 -8 1 C-3 0 -3 0 0 0 Z " fill="#C8CFD1" transform="translate(202,10)"/>
<path d="M0 0 C1.299375 0.00451172 2.59875 0.00902344 3.9375 0.01367188 C7.12504825 0.0253908 10.31249955 0.04179781 13.5 0.0625 C14.5 3.0625 14.5 3.0625 13.5 9.0625 C4.59 9.0625 -4.32 9.0625 -13.5 9.0625 C-13.5 14.3425 -13.5 19.6225 -13.5 25.0625 C-12.24703125 25.05089844 -10.9940625 25.03929688 -9.703125 25.02734375 C-8.05208483 25.01796284 -6.40104304 25.00886296 -4.75 25 C-3.925 24.99162109 -3.1 24.98324219 -2.25 24.97460938 C-1.45078125 24.97138672 -0.6515625 24.96816406 0.171875 24.96484375 C0.9050293 24.95960693 1.63818359 24.95437012 2.39355469 24.94897461 C4.5461849 25.0649891 6.4314135 25.47176729 8.5 26.0625 C9.42091738 28.64106865 9.68506902 29.6568287 8.5234375 32.203125 C8.01683594 33.12351562 8.01683594 33.12351562 7.5 34.0625 C6.241875 34.041875 4.98375 34.02125 3.6875 34 C-1.75276726 33.99133715 -7.08967637 34.51461913 -12.5 35.0625 C-12.83 40.0125 -13.16 44.9625 -13.5 50.0625 C-4.26 50.0625 4.98 50.0625 14.5 50.0625 C15.5 52.0625 15.5 52.0625 14.5 58.0625 C2.29 58.0625 -9.92 58.0625 -22.5 58.0625 C-22.66582131 50.7485046 -22.82830049 43.43459523 -22.98217773 36.12036133 C-23.03553486 33.63236232 -23.0908592 31.14440468 -23.14819336 28.65649414 C-23.23027948 25.07968059 -23.30528146 21.50277774 -23.37890625 17.92578125 C-23.40594131 16.81415115 -23.43297638 15.70252106 -23.46083069 14.5572052 C-23.48092697 13.51650375 -23.50102325 12.47580231 -23.52172852 11.40356445 C-23.54171402 10.4908931 -23.56169952 9.57822174 -23.58229065 8.63789368 C-23.49827462 6.00850185 -23.08923925 3.62225311 -22.5 1.0625 C-15.00009325 -0.14013656 -7.5817215 -0.05008251 0 0 Z " fill="#ABB6BC" transform="translate(232.5,9.9375)"/>
<path d="M0 0 C6.23988826 2.55929573 11.13048119 7.02090743 14.00390625 13.13671875 C16.33808372 19.04541067 16.33808372 19.04541067 14.9375 23 C12.83861179 25.16659428 11.86094301 25.42900098 9 26 C8.84144531 25.41992188 8.68289062 24.83984375 8.51953125 24.2421875 C6.87295134 18.7293288 5.1912863 14.99634275 1 11 C-3.59561887 8.70219057 -7.08252209 8.55867027 -12 10 C-14.99098759 12.0280942 -17.46882767 14.43062129 -20 17 C-20.76570313 17.75539063 -21.53140625 18.51078125 -22.3203125 19.2890625 C-26.48051298 23.16959928 -26.48051298 23.16959928 -28.14453125 28.3203125 C-26.37277245 32.46852594 -23.34259536 35.15442921 -20.125 38.25 C-19.16787109 39.20519531 -19.16787109 39.20519531 -18.19140625 40.1796875 C-14.41499071 43.88514743 -12.2458623 45.69174439 -6.8125 46.4375 C-1.58570729 45.83770412 1.43701871 43.82576083 5 40 C6.68303976 37.10064579 7.92832471 34.17272291 9 31 C10.32 31 11.64 31 13 31 C15.39251268 34.58876902 15.55967086 35.76249208 15 40 C12.63825047 45.06507442 9.65879999 48.85531001 5 52 C3.88238281 52.78310547 3.88238281 52.78310547 2.7421875 53.58203125 C-2.64980315 56.37019735 -9.29412057 55.68478207 -15.15625 54.6015625 C-20.48274987 52.73728755 -23.57996759 48.21718282 -27 44 C-28.31387169 42.64748503 -29.64426252 41.31054623 -31 40 C-34.5949523 36.49722597 -37.83618873 32.88696813 -41 29 C-38.81711438 22.25289898 -33.88772074 17.88772074 -29 13 C-28.195625 12.01 -27.39125 11.02 -26.5625 10 C-18.83261965 0.95038398 -11.69466645 -1.37654723 0 0 Z " fill="#DBE2E4" transform="translate(86,11)"/>
<path d="M0 0 C2.17771121 1.56755522 3.35656912 2.80875882 5 5 C5.125 7.125 5.125 7.125 4 9 C1.4375 10.75 1.4375 10.75 -1 12 C-2.5 10.625 -2.5 10.625 -4 9 C-4 8.34 -4 7.68 -4 7 C-10.31115927 4.89628024 -15.6745538 3.89151793 -22.1875 6.0625 C-26.14909132 8.79159624 -29.07941752 12.24404238 -30.62109375 16.859375 C-31.93380064 24.2754923 -31.80439363 31.44070064 -28 38 C-25.69164811 41.28697356 -23.93660418 43.68779861 -20 45 C-11.84824697 45.98078291 -6.64402466 43.42934978 0 39 C2.96076291 39.35888035 3.84658021 39.84658021 6 42 C5.67814948 45.31908352 4.4733406 46.91550295 2 49.0625 C-2.98568623 53.09804521 -8.18251827 54.69812696 -14.5 55.375 C-23.14816407 54.44841099 -29.82485574 51.18754415 -36 45 C-37.83515091 42.45463532 -38.98020602 39.95907434 -40 37 C-40.24621094 36.34644531 -40.49242187 35.69289062 -40.74609375 35.01953125 C-43.34545814 26.41418205 -41.85335466 15.90769526 -37.875 7.9375 C-33.44971607 1.08669601 -27.24754537 -2.5915647 -19.44140625 -4.59375 C-12.35792486 -5.7724413 -6.14122922 -3.49595591 0 0 Z " fill="#C7D0D6" transform="translate(289,14)"/>
<path d="M0 0 C0.67482422 0.61488281 0.67482422 0.61488281 1.36328125 1.2421875 C0.2115477 3.71018797 -0.6845544 5.29002315 -2.63671875 7.2421875 C-5.30656284 6.95613278 -6.99070862 6.03637943 -9.32421875 4.6796875 C-14.67640769 2.35703947 -19.44959218 2.76499625 -25.07421875 3.9921875 C-28.08895428 5.4627902 -28.52034816 6.1506997 -29.63671875 9.2421875 C-30.13945312 10.12648438 -30.6421875 11.01078125 -31.16015625 11.921875 C-33.9753608 18.25236141 -33.80778601 26.22452597 -31.875 32.85546875 C-30.10140418 36.5779169 -27.8686278 39.63580923 -24.63671875 42.2421875 C-19.1409978 44.07409448 -13.57212191 44.01634876 -8.19921875 41.8671875 C-6.33020021 40.68195623 -4.47816532 39.46981855 -2.63671875 38.2421875 C-0.98671875 40.2221875 0.66328125 42.2021875 2.36328125 44.2421875 C-3.61839364 50.36251048 -10.09977688 53.08682631 -18.63671875 53.7421875 C-24.57829925 53.46555521 -30.06153729 50.50922759 -34.46484375 46.6328125 C-41.47299341 38.91676894 -43.93919732 30.80193158 -43.859375 20.5390625 C-43.56175284 16.13216596 -42.52529441 13.22918056 -40.63671875 9.2421875 C-40.22421875 8.2109375 -39.81171875 7.1796875 -39.38671875 6.1171875 C-35.35073311 -0.51336034 -28.91543877 -4.66715838 -21.44921875 -6.5703125 C-12.94932176 -6.98834022 -6.57023321 -5.50372241 0 0 Z " fill="#C5CFD3" transform="translate(51.63671875,15.7578125)"/>
<path d="M0 0 C0.84477905 0.00202423 1.68955811 0.00404846 2.55993652 0.00613403 C3.42179565 0.00517731 4.28365479 0.00422058 5.17163086 0.00323486 C6.99751864 0.00255304 8.82340884 0.00440749 10.64929199 0.00857544 C13.45419731 0.01392367 16.25894248 0.00863054 19.06384277 0.00222778 C20.83337438 0.00288856 22.60290588 0.00416973 24.37243652 0.00613403 C25.21721558 0.0041098 26.06199463 0.00208557 26.93237305 0 C32.85123621 0.02399622 32.85123621 0.02399622 33.96618652 1.13894653 C34.09118652 4.63894653 34.09118652 4.63894653 33.96618652 8.13894653 C33.63618652 8.46894653 33.30618652 8.79894653 32.96618652 9.13894653 C28.01618652 9.13894653 23.06618652 9.13894653 17.96618652 9.13894653 C17.96618652 25.30894653 17.96618652 41.47894653 17.96618652 58.13894653 C15.32618652 58.46894653 12.68618652 58.79894653 9.96618652 59.13894653 C8.38173627 57.55449628 8.83890623 55.9396043 8.83679199 53.7427063 C8.83363983 52.80826187 8.83048767 51.87381744 8.82723999 50.91105652 C8.82926422 49.89442429 8.83128845 48.87779205 8.83337402 47.83035278 C8.8324173 46.79329697 8.83146057 45.75624115 8.83047485 44.6877594 C8.82979284 42.4894403 8.83164862 40.29111921 8.83581543 38.09280396 C8.84115798 34.71946704 8.83587393 31.34626362 8.82946777 27.97293091 C8.83012866 25.84207124 8.83141003 23.71121165 8.83337402 21.58035278 C8.83134979 20.56574478 8.82932556 19.55113678 8.82723999 18.50578308 C8.83039215 17.56818649 8.83354431 16.6305899 8.83679199 15.6645813 C8.83758759 14.83708878 8.83838318 14.00959625 8.83920288 13.1570282 C8.96618652 11.13894653 8.96618652 11.13894653 9.96618652 9.13894653 C8.25108887 9.26463013 8.25108887 9.26463013 6.50134277 9.39285278 C5.0104765 9.49599447 3.51959 9.598844 2.02868652 9.70144653 C1.27394043 9.75752075 0.51919434 9.81359497 -0.25842285 9.87136841 C-2.18127305 10.00070811 -4.10770896 10.07411565 -6.03381348 10.13894653 C-7.03381348 9.13894653 -7.03381348 9.13894653 -7.16662598 7.32644653 C-7.16404785 6.60457153 -7.16146973 5.88269653 -7.15881348 5.13894653 C-7.1613916 4.41707153 -7.16396973 3.69519653 -7.16662598 2.95144653 C-6.86070256 -1.2235083 -3.40312864 0.01379694 0 0 Z " fill="#BCC8CE" transform="translate(304.0338134765625,9.861053466796875)"/>
<path d="M0 0 C11.22 0 22.44 0 34 0 C34 2.31 34 4.62 34 7 C25.09 7 16.18 7 7 7 C7.020625 11.00125 7.04125 15.0025 7.0625 19.125 C7.10004115 45.34993828 7.10004115 45.34993828 4 50 C3.34 50 2.68 50 2 50 C2 51.65 2 53.3 2 55 C12.56 55 23.12 55 34 55 C34.495 54.01 34.495 54.01 35 53 C35 53.99 35 54.98 35 56 C23.45 56 11.9 56 0 56 C0 37.52 0 19.04 0 0 Z " fill="#E2E7EA" transform="translate(211,11)"/>
<path d="M0 0 C7 0 7 0 8.71264648 1.28515625 C9.09493408 1.87167969 9.47722168 2.45820313 9.87109375 3.0625 C10.51401367 4.00996094 10.51401367 4.00996094 11.16992188 4.9765625 C11.79737305 5.97816406 11.79737305 5.97816406 12.4375 7 C12.88287109 7.66773438 13.32824219 8.33546875 13.78710938 9.0234375 C14.87966778 10.66814908 15.9428164 12.3323301 17 14 C16 16 16 16 14 19 C9.125 17.125 9.125 17.125 8 16 C7.67 29.2 7.34 42.4 7 56 C4.69 56 2.38 56 0 56 C0 37.52 0 19.04 0 0 Z " fill="#E0ECF3" transform="translate(109,11)"/>
<path d="M0 0 C2.97 0 5.94 0 9 0 C9.144375 1.11375 9.28875 2.2275 9.4375 3.375 C9.78372035 6.82142047 9.78372035 6.82142047 11 9 C10.54874756 10.25127686 10.54874756 10.25127686 10.08837891 11.52783203 C8.70520472 15.94046174 8.64725949 19.95810428 8.5859375 24.5546875 C8.56657135 25.45623566 8.5472052 26.35778381 8.5272522 27.28665161 C8.46775704 30.14933996 8.42119183 33.01206918 8.375 35.875 C8.33679253 37.82293363 8.2977392 39.77085086 8.2578125 41.71875 C8.16208035 46.47903258 8.07793884 51.2393942 8 56 C5.69 56 3.38 56 1 56 C-0.09080241 49.84394905 -0.12876053 43.83917721 -0.09765625 37.59765625 C-0.0962413 36.51995468 -0.09482635 35.44225311 -0.09336853 34.33189392 C-0.08779611 30.90873371 -0.07524868 27.48564025 -0.0625 24.0625 C-0.05748144 21.73372491 -0.05291915 19.40494878 -0.04882812 17.07617188 C-0.0378357 11.38408908 -0.02059011 5.69205584 0 0 Z " fill="#C8D1D5" transform="translate(159,11)"/>
<path d="M0 0 C0.33 0 0.66 0 1 0 C1 13.53 1 27.06 1 41 C0.01 41 -0.98 41 -2 41 C-2 40.01 -2 39.02 -2 38 C-2.99 38 -3.98 38 -5 38 C-5.33 37.34 -5.66 36.68 -6 36 C-8.52733235 35.34444881 -8.52733235 35.34444881 -11 35 C-10.505 35.495 -10.505 35.495 -10 36 C-9.71125 36.598125 -9.4225 37.19625 -9.125 37.8125 C-8.05648066 40.07767255 -8.05648066 40.07767255 -6.3125 42.0625 C-5.6628125 43.0215625 -5.6628125 43.0215625 -5 44 C-5.33 44.99 -5.66 45.98 -6 47 C-6.59167969 46.14277344 -7.18335938 45.28554688 -7.79296875 44.40234375 C-8.5910224 43.24731054 -9.3892081 42.09236856 -10.1875 40.9375 C-10.5995166 40.34130859 -11.0115332 39.74511719 -11.43603516 39.13085938 C-13.5563449 36.06772581 -15.69053414 33.0179236 -17.875 30 C-23 22.76470588 -23 22.76470588 -23 20 C-23.66 20 -24.32 20 -25 20 C-25.33 32.21 -25.66 44.42 -26 57 C-28.97 57 -31.94 57 -35 57 C-34.67 55.68 -34.34 54.36 -34 53 C-34 53.99 -34 54.98 -34 56 C-31.69 56 -29.38 56 -27 56 C-27.01047363 54.794646 -27.02094727 53.58929199 -27.03173828 52.34741211 C-27.06807489 47.85411577 -27.09095007 43.36083231 -27.10986328 38.86743164 C-27.1198898 36.92665418 -27.13351443 34.9858917 -27.15087891 33.04516602 C-27.17527489 30.24752084 -27.18651681 27.45007629 -27.1953125 24.65234375 C-27.20563507 23.7916478 -27.21595764 22.93095184 -27.22659302 22.04417419 C-27.22752445 16.98617184 -26.52810244 12.8679467 -25 8 C-25 6.68 -25 5.36 -25 4 C-20.69071363 7.78694863 -17.91089983 12.08849896 -14.8984375 16.94921875 C-12.92081309 20.12725304 -10.88167076 23.25585969 -8.8125 26.375 C-8.17957031 27.33148438 -7.54664063 28.28796875 -6.89453125 29.2734375 C-5.04605874 31.93371341 -3.02365702 34.47042873 -1 37 C-0.67 24.79 -0.34 12.58 0 0 Z " fill="#AAB8C1" transform="translate(194,11)"/>
<path d="M0 0 C2.3515625 0.703125 2.3515625 0.703125 4.9765625 3.390625 C6.4652938 6.97711404 6.98879306 8.87974163 6.3515625 12.703125 C4.31162342 16.3609468 2.84736988 18.37258674 -0.6484375 20.703125 C-4.89165692 20.93755701 -8.57464052 20.40109304 -12.1484375 18.078125 C-14.19048593 14.84488165 -14.58258387 12.52263543 -14.6484375 8.703125 C-11.79378506 0.89039199 -7.93211866 -1.07633468 0 0 Z " fill="#259AD1" transform="translate(81.6484375,28.296875)"/>
<path d="M0 0 C1.32 0 2.64 0 4 0 C6.39251268 3.58876902 6.55967086 4.76249208 6 9 C3.63825047 14.06507442 0.65879999 17.85531001 -4 21 C-4.73605469 21.5259375 -5.47210938 22.051875 -6.23046875 22.59375 C-9.64603283 24.32802796 -12.00511279 24.30287537 -15.8125 24.1875 C-17.55466797 24.14689453 -17.55466797 24.14689453 -19.33203125 24.10546875 C-20.21246094 24.07066406 -21.09289062 24.03585938 -22 24 C-22 23.67 -22 23.34 -22 23 C-18.7 22.67 -15.4 22.34 -12 22 C-14.31 22 -16.62 22 -19 22 C-19.268125 21.360625 -19.53625 20.72125 -19.8125 20.0625 C-20.88667752 17.66868314 -20.88667752 17.66868314 -24 17 C-24 16.01 -24 15.02 -24 14 C-24.99 14 -25.98 14 -27 14 C-27 13.01 -27 12.02 -27 11 C-27.66 11 -28.32 11 -29 11 C-28.67 10.01 -28.34 9.02 -28 8 C-27.60167969 8.42152344 -27.20335938 8.84304687 -26.79296875 9.27734375 C-26.26316406 9.82519531 -25.73335938 10.37304688 -25.1875 10.9375 C-24.40439453 11.75541016 -24.40439453 11.75541016 -23.60546875 12.58984375 C-21.19279748 14.7090027 -18.95203948 15.00658282 -15.8125 15.4375 C-10.58570729 14.83770412 -7.56298129 12.82576083 -4 9 C-2.31696024 6.10064579 -1.07167529 3.17272291 0 0 Z " fill="#C0C8CF" transform="translate(95,42)"/>
<path d="M0 0 C1.9375 0.75 1.9375 0.75 3.9375 2.75 C3.61564948 6.06908352 2.4108406 7.66550295 -0.0625 9.8125 C-5.04818623 13.84804521 -10.24501827 15.44812696 -16.5625 16.125 C-22.45568027 15.49358783 -28.02268364 14.31396974 -32.0625 9.75 C-30.4125 9.75 -28.7625 9.75 -27.0625 9.75 C-27.0625 9.09 -27.0625 8.43 -27.0625 7.75 C-26.74771554 6.41216607 -26.41662344 5.07796291 -26.0625 3.75 C-25.49015625 4.07226562 -24.9178125 4.39453125 -24.328125 4.7265625 C-19.97776837 6.6917236 -15.26492483 6.5578098 -10.8046875 4.921875 C-0.68325463 -0.08281874 -0.68325463 -0.08281874 0 0 Z " fill="#E1E7EA" transform="translate(291.0625,53.25)"/>
<path d="M0 0 C9.24 0 18.48 0 28 0 C29 3 29 3 28 9 C19.09 9 10.18 9 1 9 C1 14.28 1 19.56 1 25 C2.25296875 24.98839844 3.5059375 24.97679688 4.796875 24.96484375 C6.44791517 24.95546284 8.09895696 24.94636296 9.75 24.9375 C10.575 24.92912109 11.4 24.92074219 12.25 24.91210938 C13.04921875 24.90888672 13.8484375 24.90566406 14.671875 24.90234375 C15.4050293 24.89710693 16.13818359 24.89187012 16.89355469 24.88647461 C19.0461849 25.0024891 20.9314135 25.40926729 23 26 C23.625 27.75 23.625 27.75 24 30 C23.34 31.32 22.68 32.64 22 34 C14.74 33.67 7.48 33.34 0 33 C-0.86567306 29.53730776 -1.0688425 27.47668555 -0.87890625 24.015625 C-0.83580322 23.17290039 -0.7927002 22.33017578 -0.74829102 21.46191406 C-0.68697998 20.40198242 -0.62566895 19.34205078 -0.5625 18.25 C-0.376875 14.8675 -0.19125 11.485 0 8 C8.91 8 17.82 8 27 8 C27 5.69 27 3.38 27 1 C18.09 1 9.18 1 0 1 C0 0.67 0 0.34 0 0 Z " fill="#9CA8B1" transform="translate(218,10)"/>
<path d="M0 0 C0.33 0 0.66 0 1 0 C1 18.48 1 36.96 1 56 C3.31 56 5.62 56 8 56 C8 42.47 8 28.94 8 15 C11.465 16.98 11.465 16.98 15 19 C15.66 17.68 16.32 16.36 17 15 C20.25523313 18.07927458 23.18378112 20.863057 25 25 C24.6875 28.3125 24.6875 28.3125 24 31 C22.35 31.33 20.7 31.66 19 32 C18.51789063 31.30132812 18.03578125 30.60265625 17.5390625 29.8828125 C16.90742187 28.97273438 16.27578125 28.06265625 15.625 27.125 C14.99851562 26.22007813 14.37203125 25.31515625 13.7265625 24.3828125 C12.0701905 21.96505875 12.0701905 21.96505875 10 20 C9.67 32.21 9.34 44.42 9 57 C6.03 57 3.06 57 0 57 C-0.17012446 51.45417421 -0.33035965 45.90817359 -0.48217773 40.36181641 C-0.534924 38.48251009 -0.59018262 36.60327227 -0.64819336 34.72412109 C-1.00590867 23.07193364 -0.99167401 11.62295706 0 0 Z " fill="#758792" transform="translate(108,11)"/>
<path d="M0 0 C3.16015625 -0.4375 3.16015625 -0.4375 7 0 C9.31331465 2.00392838 10.8211913 4.41988318 12.4375 7 C12.88287109 7.66773438 13.32824219 8.33546875 13.78710938 9.0234375 C14.87966778 10.66814908 15.9428164 12.3323301 17 14 C16 16 16 16 14 19 C11.08482708 17.92598892 9.22189824 17.22189824 7 15 C5.89771304 19.40914783 5.92345464 23.48382401 6 28 C4.0625 27.1875 4.0625 27.1875 2 26 C1.02084938 23.06254813 0.89589407 21.23671799 0.9375 18.18359375 C0.94523437 17.25482422 0.95296875 16.32605469 0.9609375 15.36914062 C0.97382812 14.40169922 0.98671875 13.43425781 1 12.4375 C1.02545339 10.519587 1.04650543 8.60160896 1.0625 6.68359375 C1.07410156 5.83337646 1.08570312 4.98315918 1.09765625 4.10717773 C1.13997525 1.94217825 1.13997525 1.94217825 0 0 Z " fill="#E2E4E3" transform="translate(109,11)"/>
<path d="M0 0 C0.67482422 0.61488281 0.67482422 0.61488281 1.36328125 1.2421875 C0.2115477 3.71018797 -0.6845544 5.29002315 -2.63671875 7.2421875 C-5.27982799 6.95899722 -7.04300798 6.0205752 -9.38671875 4.7421875 C-13.28627934 2.9423903 -16.37700375 2.60940431 -20.63671875 2.2421875 C-20.63671875 1.9121875 -20.63671875 1.5821875 -20.63671875 1.2421875 C-17.17171875 0.7471875 -17.17171875 0.7471875 -13.63671875 0.2421875 C-13.96671875 -0.7478125 -14.29671875 -1.7378125 -14.63671875 -2.7578125 C-16.74256313 -3.56344888 -16.74256313 -3.56344888 -19.19921875 -3.9453125 C-20.43865234 -4.18314453 -20.43865234 -4.18314453 -21.703125 -4.42578125 C-22.34121094 -4.53535156 -22.97929687 -4.64492187 -23.63671875 -4.7578125 C-23.96671875 -3.7678125 -24.29671875 -2.7778125 -24.63671875 -1.7578125 C-26.4140625 -0.87890625 -26.4140625 -0.87890625 -28.57421875 -0.1953125 C-31.36522103 0.70125266 -32.5144652 1.11993395 -34.63671875 3.2421875 C-34.80171875 3.9228125 -34.96671875 4.6034375 -35.13671875 5.3046875 C-35.30171875 5.9440625 -35.46671875 6.5834375 -35.63671875 7.2421875 C-36.62671875 7.7371875 -36.62671875 7.7371875 -37.63671875 8.2421875 C-38.24939855 10.03079232 -38.24939855 10.03079232 -38.63671875 12.1171875 C-39.27283114 15.19551711 -39.81564895 16.5105828 -41.63671875 19.2421875 C-42.29671875 19.2421875 -42.95671875 19.2421875 -43.63671875 19.2421875 C-42.40464428 11.29806553 -39.84525184 4.83367985 -33.69921875 -0.5703125 C-22.71119276 -8.41890249 -10.5136095 -8.80699152 0 0 Z " fill="#BECBD1" transform="translate(51.63671875,15.7578125)"/>
<path d="M0 0 C15.49019663 -1.10206933 15.49019663 -1.10206933 22.26953125 4.3671875 C27.01563899 8.8454562 29.95895216 13.46979085 31 20 C29.9375 23 29.9375 23 28 25 C25.87890625 25.625 25.87890625 25.625 24 26 C23.84144531 25.43152344 23.68289062 24.86304687 23.51953125 24.27734375 C21.81865692 18.6484834 19.63624608 14.61901529 16 10 C16.66 10 17.32 10 18 10 C18.33 9.34 18.66 8.68 19 8 C20.32 9.32 21.64 10.64 23 12 C23 11.01 23 10.02 23 9 C22.34 9 21.68 9 21 9 C19.31237149 7.3545622 17.6459651 5.68711423 16 4 C15.34 3.67 14.68 3.34 14 3 C14 2.34 14 1.68 14 1 C9.05 1.33 4.1 1.66 -1 2 C-0.67 1.34 -0.34 0.68 0 0 Z " fill="#B4C1C7" transform="translate(71,11)"/>
<path d="M0 0 C1.98 1.65 3.96 3.3 6 5 C3.33583639 8.65089087 1.11438414 11.07995407 -3 13 C-6.55078125 13.07421875 -6.55078125 13.07421875 -10.3125 12.6875 C-11.56675781 12.56761719 -12.82101563 12.44773437 -14.11328125 12.32421875 C-15.06589844 12.21722656 -16.01851562 12.11023438 -17 12 C-17.33 10.68 -17.66 9.36 -18 8 C-14.39144354 7.48449193 -10.822073 6.98541582 -7.1875 6.6875 C-3.9235355 6.36771213 -3.9235355 6.36771213 -2.6875 4.0625 C-2.460625 3.381875 -2.23375 2.70125 -2 2 C-1.34 1.34 -0.68 0.68 0 0 Z " fill="#E1E8E7" transform="translate(48,54)"/>
<path d="M0 0 C3.35212973 3.08748791 5.85053527 5.51708756 7 10 C6.81953125 10.61488281 6.6390625 11.22976562 6.453125 11.86328125 C5.87936311 14.56886535 6.43453272 16.04518607 7.375 18.625 C7.65085938 19.40101562 7.92671875 20.17703125 8.2109375 20.9765625 C8.97351924 23.02345187 8.97351924 23.02345187 10 25 C9.34 25.66 8.68 26.32 8 27 C7.31292969 25.96359375 6.62585938 24.9271875 5.91796875 23.859375 C5.00787437 22.48954222 4.09771469 21.11975284 3.1875 19.75 C2.73568359 19.06808594 2.28386719 18.38617188 1.81835938 17.68359375 C-0.00355991 14.94406547 -1.81094197 12.24452045 -3.82421875 9.640625 C-5 8 -5 8 -5 6 C-3.68 5.67 -2.36 5.34 -1 5 C-0.67 3.35 -0.34 1.7 0 0 Z " fill="#B4C0C6" transform="translate(133,37)"/>
<path d="M0 0 C1.32 0 2.64 0 4 0 C6.35273568 3.52910353 6.40753493 4.84314368 6 9 C4.5 12.375 4.5 12.375 3 15 C1.02 15 -0.96 15 -3 15 C-3.268125 15.639375 -3.53625 16.27875 -3.8125 16.9375 C-5 19 -5 19 -8 20 C-8.99 19.01 -9.98 18.02 -11 17 C-9.84757812 16.46246094 -9.84757812 16.46246094 -8.671875 15.9140625 C-5.23120351 13.44925398 -4.60513375 11.34360599 -3.25 7.375 C-1.04067797 1.04067797 -1.04067797 1.04067797 0 0 Z " fill="#CFD7DA" transform="translate(95,42)"/>
<path d="M0 0 C0.226875 0.515625 0.45375 1.03125 0.6875 1.5625 C1.83270934 3.68931734 3.0416968 5.40250997 4.5 7.3125 C7.03699879 10.77000278 8.06481503 13.83417602 9 18 C6.42719211 18.9355665 4.70780094 19.30100166 2.14453125 18.2109375 C-2.38586957 15.61413043 -2.38586957 15.61413043 -4 14 C-4.07205511 12.31391034 -4.08386068 10.62499341 -4.0625 8.9375 C-4.05347656 8.01839844 -4.04445312 7.09929688 -4.03515625 6.15234375 C-4.02355469 5.44207031 -4.01195312 4.73179688 -4 4 C-2.68 3.67 -1.36 3.34 0 3 C0 2.01 0 1.02 0 0 Z " fill="#AFBFC4" transform="translate(257,45)"/>
<path d="M0 0 C2.73277221 2.17220355 4.72888915 3.85827965 5.5546875 7.3359375 C5.78650022 9.56274452 5.94637012 11.76217118 6 14 C5.34 14 4.68 14 4 14 C4 14.66 4 15.32 4 16 C2.68 16 1.36 16 0 16 C-0.33 28.21 -0.66 40.42 -1 53 C-3.97 53 -6.94 53 -10 53 C-9.67 51.68 -9.34 50.36 -9 49 C-9 49.99 -9 50.98 -9 52 C-6.69 52 -4.38 52 -2 52 C-2.01047363 50.794646 -2.02094727 49.58929199 -2.03173828 48.34741211 C-2.06807489 43.85411577 -2.09095007 39.36083231 -2.10986328 34.86743164 C-2.1198898 32.92665418 -2.13351443 30.9858917 -2.15087891 29.04516602 C-2.17527489 26.24752084 -2.18651681 23.45007629 -2.1953125 20.65234375 C-2.20563507 19.7916478 -2.21595764 18.93095184 -2.22659302 18.04417419 C-2.22752445 12.98617184 -1.52810244 8.8679467 0 4 C0 2.68 0 1.36 0 0 Z " fill="#8A97A0" transform="translate(169,15)"/>
<path d="M0 0 C0.44988281 0.48082031 0.89976562 0.96164063 1.36328125 1.45703125 C3.22545401 3.21254017 4.51325601 3.57125104 7 4 C7.66 2.68 8.32 1.36 9 0 C9 4.95 9 9.9 9 15 C8.01 15.33 7.02 15.66 6 16 C5.67 18.64 5.34 21.28 5 24 C0.8492541 18.998118 -1.04888079 12.78011413 -0.96484375 6.28125 C-0.72835701 4.17618491 -0.37592649 2.08468326 0 0 Z " fill="#C5CFD3" transform="translate(248,33)"/>
<path d="M0 0 C2.17771121 1.56755522 3.35656912 2.80875882 5 5 C5.125 7.125 5.125 7.125 4 9 C1.4375 10.75 1.4375 10.75 -1 12 C-2.5 10.625 -2.5 10.625 -4 9 C-4 8.34 -4 7.68 -4 7 C-4.99 6.67 -5.98 6.34 -7 6 C-6.34 5.67 -5.68 5.34 -5 5 C-4.34227572 1.97065509 -4.34227572 1.97065509 -4 -1 C-4.97582031 -1.04898437 -5.95164062 -1.09796875 -6.95703125 -1.1484375 C-8.22933594 -1.22320312 -9.50164062 -1.29796875 -10.8125 -1.375 C-12.07707031 -1.44460938 -13.34164063 -1.51421875 -14.64453125 -1.5859375 C-18 -2 -18 -2 -21 -4 C-13.92702895 -6.65236414 -6.18468106 -3.52069131 0 0 Z " fill="#98B4C4" transform="translate(289,14)"/>
<path d="M0 0 C0.66 0 1.32 0 2 0 C2 0.66 2 1.32 2 2 C1.34 2.4125 0.68 2.825 0 3.25 C-2.3664015 4.90933823 -2.3664015 4.90933823 -2.25 8.1875 C-2.12625 9.5796875 -2.12625 9.5796875 -2 11 C-1.01 11.33 -0.02 11.66 1 12 C-0.30574169 14.91280837 -1.7074208 16.80294493 -4 19 C-4.66 19.99 -5.32 20.98 -6 22 C-6.33 20.68 -6.66 19.36 -7 18 C-6.34 18 -5.68 18 -5 18 C-5.66 17.34 -6.32 16.68 -7 16 C-7.33 16.33 -7.66 16.66 -8 17 C-9.66617115 17.04063832 -11.33388095 17.042721 -13 17 C-13.103125 17.639375 -13.20625 18.27875 -13.3125 18.9375 C-13.539375 19.618125 -13.76625 20.29875 -14 21 C-14.99 21.33 -15.98 21.66 -17 22 C-14.81711438 15.25289898 -9.88772074 10.88772074 -5 6 C-4.09565314 4.90279531 -3.19978004 3.79855154 -2.3125 2.6875 C-1.1678125 1.3571875 -1.1678125 1.3571875 0 0 Z " fill="#9FB0B9" transform="translate(62,18)"/>
<path d="M0 0 C0 0.66 0 1.32 0 2 C-0.66 2 -1.32 2 -2 2 C-1.23790232 5.09958535 -1.23790232 5.09958535 1.125 6.9375 C1.74375 7.618125 2.3625 8.29875 3 9 C2.75 11.25 2.75 11.25 2 13 C-2.70941985 12.53829217 -6.24046771 11.98551094 -10 9 C-10.8125 6.8125 -10.8125 6.8125 -11 5 C-10.34 5 -9.68 5 -9 5 C-8.95875 4.38125 -8.9175 3.7625 -8.875 3.125 C-8 1 -8 1 -5.0625 -0.3125 C-2 -1 -2 -1 0 0 Z " fill="#DFE4E7" transform="translate(57,34)"/>
<path d="M0 0 C2.475 0.99 2.475 0.99 5 2 C4.67 4.31 4.34 6.62 4 9 C11.9077973 9.25327465 17.92735584 8.80834686 25 5 C25 4.01 25 3.02 25 2 C24.34 1.67 23.68 1.34 23 1 C25.31 1.33 27.62 1.66 30 2 C26.1329454 7.80058189 20.72480983 10.59843643 14 12 C8.23079648 12.45248655 3.21618793 11.45646059 -2 9 C-3.765625 7.39453125 -3.765625 7.39453125 -5 6 C-3.35 6 -1.7 6 0 6 C0 5.34 0 4.68 0 4 C0 2.68 0 1.36 0 0 Z " fill="#A9B5BE" transform="translate(264,57)"/>
<path d="M0 0 C3.3 0.33 6.6 0.66 10 1 C10.33 2.65 10.66 4.3 11 6 C10.09636719 6.06058594 9.19273438 6.12117188 8.26171875 6.18359375 C7.08222656 6.26738281 5.90273438 6.35117187 4.6875 6.4375 C2.92986328 6.55931641 2.92986328 6.55931641 1.13671875 6.68359375 C-2.02590958 6.8867371 -2.02590958 6.8867371 -5 8 C-6.66621616 8.03874921 -8.33394172 8.0450286 -10 8 C-10.66 9.32 -11.32 10.64 -12 12 C-11.65415128 9.4407195 -11.31949609 7.47924414 -9.875 5.3125 C-7.16027724 3.41219407 -4.17025714 2.88062698 -1 2 C-0.67 1.34 -0.34 0.68 0 0 Z " fill="#E2EAEB" transform="translate(28,11)"/>
<path d="M0 0 C0.99 0.66 1.98 1.32 3 2 C3.34057617 4.61376953 3.34057617 4.61376953 3.29296875 7.8828125 C3.28330078 9.04941406 3.27363281 10.21601562 3.26367188 11.41796875 C3.23853516 12.64128906 3.21339844 13.86460938 3.1875 15.125 C3.17396484 16.35605469 3.16042969 17.58710937 3.14648438 18.85546875 C3.11103543 21.90407843 3.06162079 24.951825 3 28 C1.68 28 0.36 28 -1 28 C-2.06761435 21.60924559 -1.81335682 15.91726076 -1.0625 9.5 C-0.96259766 8.5821875 -0.86269531 7.664375 -0.75976562 6.71875 C-0.51469698 4.47812243 -0.26129793 2.2387828 0 0 Z " fill="#E7E8E8" transform="translate(112,37)"/>
<path d="M0 0 C3.06887396 0.02927384 4.45513726 0.12220049 7.1875 1.625 C8.6875 3.25 8.6875 3.25 9.6875 5.25 C5.57189805 7.24544337 2.23700416 7.51247139 -2.3125 7.25 C-2.6425 6.92 -2.9725 6.59 -3.3125 6.25 C-3.6425 6.91 -3.9725 7.57 -4.3125 8.25 C0.9675 8.25 6.2475 8.25 11.6875 8.25 C11.6875 8.58 11.6875 8.91 11.6875 9.25 C9.04198944 9.44386492 6.39632217 9.63038267 3.75 9.8125 C2.99525391 9.86857422 2.24050781 9.92464844 1.46289062 9.98242188 C-0.45995958 10.11176157 -2.38639548 10.18516912 -4.3125 10.25 C-5.3125 9.25 -5.3125 9.25 -5.4453125 7.4375 C-5.44273437 6.715625 -5.44015625 5.99375 -5.4375 5.25 C-5.44007813 4.528125 -5.44265625 3.80625 -5.4453125 3.0625 C-5.18560801 -0.48170248 -3.07490448 0.06039092 0 0 Z " fill="#B1BEC1" transform="translate(302.3125,9.75)"/>
<path d="M0 0 C0.91523438 0.08378906 1.83046875 0.16757812 2.7734375 0.25390625 C3.96195312 0.35574219 5.15046875 0.45757812 6.375 0.5625 C7.55835938 0.66691406 8.74171875 0.77132812 9.9609375 0.87890625 C12.91898631 1.24153596 12.91898631 1.24153596 15 0 C15.99 0.99 16.98 1.98 18 3 C17 5 17 5 14.83203125 6.1171875 C11.63026245 7.11525612 9.03339581 7.19853617 5.6875 7.125 C4.61886719 7.10695313 3.55023438 7.08890625 2.44921875 7.0703125 C1.64097656 7.04710938 0.83273437 7.02390625 0 7 C0 4.69 0 2.38 0 0 Z " fill="#E7E8E7" transform="translate(267,60)"/>
<path d="M0 0 C2.47923801 -0.02685095 4.9581884 -0.04676547 7.4375 -0.0625 C8.14455078 -0.07087891 8.85160156 -0.07925781 9.58007812 -0.08789062 C11.38693559 -0.09653588 13.19387603 -0.05220011 15 0 C16 1 16 1 16 6 C10.72 6 5.44 6 0 6 C0.33 4.68 0.66 3.36 1 2 C0.67 1.34 0.34 0.68 0 0 Z " fill="#E4E8EA" transform="translate(320,12)"/>
<path d="M0 0 C-1.98 0.99 -1.98 0.99 -4 2 C-4 1.34 -4 0.68 -4 0 C-8.29 0 -12.58 0 -17 0 C-17.33 0.99 -17.66 1.98 -18 3 C-19.77734375 3.87890625 -19.77734375 3.87890625 -21.9375 4.5625 C-24.72850228 5.45906516 -25.87774645 5.87774645 -28 8 C-28.165 8.680625 -28.33 9.36125 -28.5 10.0625 C-28.665 10.701875 -28.83 11.34125 -29 12 C-29.99 12.495 -29.99 12.495 -31 13 C-31.6126798 14.78860482 -31.6126798 14.78860482 -32 16.875 C-32.63611239 19.95332961 -33.1789302 21.2683953 -35 24 C-35.66 24 -36.32 24 -37 24 C-35.76792553 16.05587803 -33.20853309 9.59149235 -27.0625 4.1875 C-17.85517645 -2.38915968 -10.70651184 -2.34265449 0 0 Z " fill="#7296A8" transform="translate(45,11)"/>
<path d="M0 0 C0.33 0 0.66 0 1 0 C1 18.81 1 37.62 1 57 C-6 58 -6 58 -7.9375 56.6875 C-9 55 -9 55 -9 53 C-7.68 53.33 -6.36 53.66 -5 54 C-5 54.66 -5 55.32 -5 56 C-3.35 56 -1.7 56 0 56 C0 37.52 0 19.04 0 0 Z " fill="#6C7F8B" transform="translate(151,11)"/>
<path d="M0 0 C1.98 1.65 3.96 3.3 6 5 C4.625 6.5 4.625 6.5 3 8 C2.34 8 1.68 8 1 8 C0.67 8.99 0.34 9.98 0 11 C-3.87909417 9.52861945 -5.01056241 7.54638875 -7 4 C-7.99 3.01 -8.98 2.02 -10 1 C-5.545 1.99 -5.545 1.99 -1 3 C-0.67 2.01 -0.34 1.02 0 0 Z " fill="#BFCACD" transform="translate(60,44)"/>
<path d="M0 0 C2.51083114 1.25541557 2.87125446 2.50063488 4 5 C4.66 4.34 5.32 3.68 6 3 C5.67 7.29 5.34 11.58 5 16 C4.01 14.68 3.02 13.36 2 12 C1.34 11.67 0.68 11.34 0 11 C-0.33 13.31 -0.66 15.62 -1 18 C-1.33 18 -1.66 18 -2 18 C-2.3690205 5.33029613 -2.3690205 5.33029613 0 0 Z " fill="#E1EAEE" transform="translate(251,26)"/>
<path d="M0 0 C0.91007812 0.10183594 1.82015625 0.20367187 2.7578125 0.30859375 C3.45648438 0.39238281 4.15515625 0.47617187 4.875 0.5625 C5.205 1.5525 5.535 2.5425 5.875 3.5625 C5.545 4.2225 5.215 4.8825 4.875 5.5625 C1.245 5.2325 -2.385 4.9025 -6.125 4.5625 C-6.455 3.2425 -6.785 1.9225 -7.125 0.5625 C-4.50184968 -0.74907516 -2.89466564 -0.33399988 0 0 Z " fill="#E7E9E7" transform="translate(37.125,61.4375)"/>
<path d="M0 0 C0.33 0 0.66 0 1 0 C1 4.95 1 9.9 1 15 C0.01 15.33 -0.98 15.66 -2 16 C-2.33 18.64 -2.66 21.28 -3 24 C-5.50298434 21.06171403 -6.46930939 18.82097239 -7 15 C-6.34 15 -5.68 15 -5 15 C-2.52821142 13.2255422 -2.01750798 12.06993828 -1.26953125 9.08203125 C-1.11871094 8.00308594 -0.96789062 6.92414062 -0.8125 5.8125 C-0.65394531 4.72582031 -0.49539062 3.63914063 -0.33203125 2.51953125 C-0.22246094 1.68808594 -0.11289063 0.85664062 0 0 Z " fill="#B2BDC4" transform="translate(256,33)"/>
<path d="M0 0 C2.99324263 1.0975223 3.84610901 1.67682892 5.25 4.625 C5.4975 5.40875 5.745 6.1925 6 7 C3.525 6.01 3.525 6.01 1 5 C1 6.65 1 8.3 1 10 C0.01 10 -0.98 10 -2 10 C-3.32 7.36 -4.64 4.72 -6 2 C-3.525 2.99 -3.525 2.99 -1 4 C-0.67 2.68 -0.34 1.36 0 0 Z " fill="#B1BCC4" transform="translate(124,26)"/>
<path d="M0 0 C0.33 1.65 0.66 3.3 1 5 C-2.13498292 6.85776765 -4.37471432 7.20140476 -8 7 C-8.103125 7.639375 -8.20625 8.27875 -8.3125 8.9375 C-8.539375 9.618125 -8.76625 10.29875 -9 11 C-9.99 11.33 -10.98 11.66 -12 12 C-10.50948318 7.39294801 -8.21457741 4.53603516 -5 1 C-3 0 -3 0 0 0 Z " fill="#B3C5CD" transform="translate(57,28)"/>
<path d="M0 0 C0.33 0 0.66 0 1 0 C1.66 3.3 2.32 6.6 3 10 C3.99 10.33 4.98 10.66 6 11 C6 11.66 6 12.32 6 13 C8.97 13 11.94 13 15 13 C13 15 13 15 10.9765625 15.1171875 C7.28034048 14.73651347 4.65474162 14.42558205 1.5 12.375 C-0.48136377 9.23784069 -0.79926265 6.68018481 -1 3 C-0.67 2.01 -0.34 1.02 0 0 Z " fill="#1D6E9B" transform="translate(68,34)"/>
<path d="M0 0 C1.65 0 3.3 0 5 0 C5 1.65 5 3.3 5 5 C4.34 5 3.68 5 3 5 C3 5.66 3 6.32 3 7 C1.68 7.33 0.36 7.66 -1 8 C-1.33 7.34 -1.66 6.68 -2 6 C-2.99 6.33 -3.98 6.66 -5 7 C-4.1875 5.0625 -4.1875 5.0625 -3 3 C-2.01 2.67 -1.02 2.34 0 2 C0 1.34 0 0.68 0 0 Z " fill="#E6EBEE" transform="translate(64,18)"/>
<path d="M0 0 C0.33 0.99 0.66 1.98 1 3 C0.071875 3.61875 0.071875 3.61875 -0.875 4.25 C-3.06768281 6.05573879 -3.92788417 7.4090534 -5 10 C-6.32 9.34 -7.64 8.68 -9 8 C-7.18503725 3.95123694 -4.8836322 0 0 0 Z " fill="#25A9E9" transform="translate(78,32)"/>
<path d="M0 0 C0.763125 0.804375 1.52625 1.60875 2.3125 2.4375 C6.21447725 6.15798994 9.78185424 6.31081094 15 7 C15 7.33 15 7.66 15 8 C12.89611431 8.05402274 10.79183286 8.09280256 8.6875 8.125 C6.92986328 8.15980469 6.92986328 8.15980469 5.13671875 8.1953125 C2 8 2 8 -1 6 C-1.25 3.4375 -1.25 3.4375 -1 1 C-0.67 0.67 -0.34 0.34 0 0 Z " fill="#E4EAEE" transform="translate(70,57)"/>
<path d="M0 0 C2.24993359 -0.02707139 4.49996095 -0.04642829 6.75 -0.0625 C8.00296875 -0.07410156 9.2559375 -0.08570313 10.546875 -0.09765625 C13.28536501 -0.02021027 15.41880293 0.17219185 18 1 C18.93065133 3.60582371 19.14917407 4.64198224 18.0625 7.25 C17.5365625 8.11625 17.5365625 8.11625 17 9 C15.02 9 13.04 9 11 9 C14 7 14 7 16 7 C15.67 5.35 15.34 3.7 15 2 C10.05 2 5.1 2 0 2 C0 1.34 0 0.68 0 0 Z " fill="#839AA4" transform="translate(223,35)"/>
<path d="M0 0 C0.99 0.33 1.98 0.66 3 1 C1.79040384 2.37167605 0.55648812 3.72193609 -0.6875 5.0625 C-1.71423828 6.19365234 -1.71423828 6.19365234 -2.76171875 7.34765625 C-5 9 -5 9 -7.76953125 8.74609375 C-8.50558594 8.49988281 -9.24164063 8.25367188 -10 8 C-10 6.68 -10 5.36 -10 4 C-9.34 4 -8.68 4 -8 4 C-7.67 3.34 -7.34 2.68 -7 2 C-6.67 2.99 -6.34 3.98 -6 5 C-4.68 4.67 -3.36 4.34 -2 4 C-2 3.34 -2 2.68 -2 2 C-1.34 2 -0.68 2 0 2 C0 1.34 0 0.68 0 0 Z " fill="#C2CBCF" transform="translate(69,21)"/>
<path d="M0 0 C2.16874252 0.50603992 3.99967627 0.99983813 6 2 C6.72693904 3.97888961 7.39816251 5.97954558 8 8 C3.25 9.125 3.25 9.125 1 8 C0.40644386 5.35139573 0.25790731 2.70802678 0 0 Z " fill="#E4E9E8" transform="translate(258,55)"/>
<path d="M0 0 C2.475 0.99 2.475 0.99 5 2 C4.79375 3.11375 4.5875 4.2275 4.375 5.375 C4.25125 6.57125 4.1275 7.7675 4 9 C4.66 9.66 5.32 10.32 6 11 C1.6109185 10.48964169 -1.33708062 9.47785723 -5 7 C-2.99967627 5.99983813 -1.16874252 5.50603992 1 5 C0.67 3.35 0.34 1.7 0 0 Z " fill="#B0BDC3" transform="translate(264,57)"/>
<path d="M0 0 C0.598125 0.185625 1.19625 0.37125 1.8125 0.5625 C4.16408762 1.22093687 4.16408762 1.22093687 7 0 C9 3 9 3 9 7 C6.6875 7.6875 6.6875 7.6875 4 8 C1.48017068 6.38010972 1.05657891 5.22117209 0.3125 2.3125 C0.209375 1.549375 0.10625 0.78625 0 0 Z " fill="#E5EAE9" transform="translate(14,53)"/>
<path d="M0 0 C0 0.66 0 1.32 0 2 C-0.66 2 -1.32 2 -2 2 C-2.33 2.99 -2.66 3.98 -3 5 C-4.9375 6.125 -4.9375 6.125 -7 7 C-7.99 7.495 -7.99 7.495 -9 8 C-9.66 7.67 -10.32 7.34 -11 7 C-11 6.34 -11 5.68 -11 5 C-10.34 5 -9.68 5 -9 5 C-8.95875 4.38125 -8.9175 3.7625 -8.875 3.125 C-8 1 -8 1 -5.0625 -0.3125 C-2 -1 -2 -1 0 0 Z " fill="#E3E7E8" transform="translate(57,34)"/>
<path d="M0 0 C2.625 0.375 2.625 0.375 5 1 C1.25 4 1.25 4 -1 4 C-1.268125 4.53625 -1.53625 5.0725 -1.8125 5.625 C-3.20833333 8.41666667 -4.60416667 11.20833333 -6 14 C-6.82638376 11.10765685 -7 9.11257569 -7 6 C-6.360625 5.896875 -5.72125 5.79375 -5.0625 5.6875 C-4.381875 5.460625 -3.70125 5.23375 -3 5 C-2.67 4.01 -2.34 3.02 -2 2 C-1.34 1.34 -0.68 0.68 0 0 Z " fill="#B2BAC3" transform="translate(25,17)"/>
<path d="M0 0 C0.66 0.33 1.32 0.66 2 1 C2 2.65 2 4.3 2 6 C3.83700789 6.77242269 3.83700789 6.77242269 6 7 C7.77190909 5.64555699 7.77190909 5.64555699 9 4 C8.8125 5.8125 8.8125 5.8125 8 8 C5.4375 9.75 5.4375 9.75 3 11 C1.5 9.625 1.5 9.625 0 8 C0 7.34 0 6.68 0 6 C-0.99 5.67 -1.98 5.34 -3 5 C-2.34 4.67 -1.68 4.34 -1 4 C-0.34786708 1.97536745 -0.34786708 1.97536745 0 0 Z " fill="#8995A5" transform="translate(285,15)"/>
<path d="M0 0 C1.32 0 2.64 0 4 0 C6.29013653 3.4352048 6.17842973 4.985331 6 9 C5.67 8.01 5.34 7.02 5 6 C3.68 6.33 2.36 6.66 1 7 C1.66 5.68 2.32 4.36 3 3 C2.34 3 1.68 3 1 3 C1 3.66 1 4.32 1 5 C0.01 5.33 -0.98 5.66 -2 6 C-1.34 4.02 -0.68 2.04 0 0 Z " fill="#93AAB3" transform="translate(95,42)"/>
<path d="M0 0 C0.763125 0.309375 1.52625 0.61875 2.3125 0.9375 C4.18789677 1.67893593 6.08684652 2.36228217 8 3 C9.1875 5.5625 9.1875 5.5625 10 8 C7.03 7.505 7.03 7.505 4 7 C3.67 6.01 3.34 5.02 3 4 C2.01 3.67 1.02 3.34 0 3 C0 2.01 0 1.02 0 0 Z " fill="#C4CFD5" transform="translate(177,34)"/>
<path d="M0 0 C2.875 0.25 2.875 0.25 6 1 C7.375 3.0625 7.375 3.0625 8 5 C8.66 5 9.32 5 10 5 C10 5.99 10 6.98 10 8 C5.25 6.125 5.25 6.125 3 5 C3.33 4.34 3.66 3.68 4 3 C2.35 2.67 0.7 2.34 -1 2 C-0.67 1.34 -0.34 0.68 0 0 Z " fill="#E9EAE5" transform="translate(84,15)"/>
<path d="M0 0 C0 8.91 0 17.82 0 27 C-0.33 27 -0.66 27 -1 27 C-1.33 19.08 -1.66 11.16 -2 3 C-3.65 2.67 -5.3 2.34 -7 2 C-4.35261084 0.5393715 -3.10551666 0 0 0 Z " fill="#C6D8E2" transform="translate(202,10)"/>
<path d="M0 0 C1.98 0.66 3.96 1.32 6 2 C5.67 2.66 5.34 3.32 5 4 C4.01 4 3.02 4 2 4 C2 4.66 2 5.32 2 6 C1.34 6 0.68 6 0 6 C0 5.34 0 4.68 0 4 C-0.66 4 -1.32 4 -2 4 C-2.33 4.99 -2.66 5.98 -3 7 C-3.99 5.68 -4.98 4.36 -6 3 C-5.38125 2.87625 -4.7625 2.7525 -4.125 2.625 C-1.80879168 2.12802644 -1.80879168 2.12802644 0 0 Z " fill="#C1CDD0" transform="translate(52,38)"/>
<path d="M0 0 C1.5 1.1875 1.5 1.1875 3 3 C3.1875 5.6875 3.1875 5.6875 3 8 C2.34 8 1.68 8 1 8 C1 8.66 1 9.32 1 10 C0.01 9.67 -0.98 9.34 -2 9 C-2.6875 6.75 -2.6875 6.75 -3 4 C-1.5625 1.6875 -1.5625 1.6875 0 0 Z " fill="#E4E6E9" transform="translate(172,21)"/>
<path d="M0 0 C15.74487472 -0.92255125 15.74487472 -0.92255125 23 5 C22.01 5.495 22.01 5.495 21 6 C18.64018187 5.06421005 16.30368736 4.06652192 14 3 C14 2.34 14 1.68 14 1 C9.05 1.33 4.1 1.66 -1 2 C-0.67 1.34 -0.34 0.68 0 0 Z " fill="#7EA1B0" transform="translate(71,11)"/>
<path d="M0 0 C0.66 0 1.32 0 2 0 C2.2475 0.598125 2.495 1.19625 2.75 1.8125 C3.87980389 4.13293213 3.87980389 4.13293213 6.125 5.5625 C6.74375 6.036875 7.3625 6.51125 8 7 C8 7.99 8 8.98 8 10 C9.43750191 11.68798827 9.43750191 11.68798827 11 13 C10.67 13.99 10.34 14.98 10 16 C8.51633029 13.89888391 7.03797344 11.79435965 5.5625 9.6875 C5.14162109 9.09259766 4.72074219 8.49769531 4.28710938 7.88476562 C2.46155404 5.27057039 1.01412535 3.04237604 0 0 Z " fill="#7E97A2" transform="translate(178,42)"/>
<path d="M0 0 C1.32 0.66 2.64 1.32 4 2 C2.84826645 4.46800047 1.95216435 6.04783565 0 8 C-2.125 7.625 -2.125 7.625 -4 7 C-4 6.01 -4 5.02 -4 4 C-3.01 4 -2.02 4 -1 4 C-0.67 2.68 -0.34 1.36 0 0 Z " fill="#9FB3BD" transform="translate(49,15)"/>
<path d="M0 0 C1.98 0.66 3.96 1.32 6 2 C5.6875 3.9375 5.6875 3.9375 5 6 C4.01 6.33 3.02 6.66 2 7 C1.01 6.34 0.02 5.68 -1 5 C-0.67 3.35 -0.34 1.7 0 0 Z " fill="#D4DEE4" transform="translate(287,16)"/>
<path d="M0 0 C0.66 0 1.32 0 2 0 C2.19335938 0.68707031 2.38671875 1.37414063 2.5859375 2.08203125 C2.97652344 3.43361328 2.97652344 3.43361328 3.375 4.8125 C3.63023437 5.70582031 3.88546875 6.59914063 4.1484375 7.51953125 C4.95266661 10.20467896 4.95266661 10.20467896 7 13 C6.34 13.66 5.68 14.32 5 15 C4.15415002 13.44424022 3.32381601 11.8800388 2.5 10.3125 C2.0359375 9.44238281 1.571875 8.57226562 1.09375 7.67578125 C-0.04818792 4.88211171 -0.21504208 2.98370887 0 0 Z " fill="#BDCCD4" transform="translate(136,49)"/>
<path d="M0 0 C1.875 0.1875 1.875 0.1875 4 1 C5.25 3.5625 5.25 3.5625 6 6 C3.625 6.625 3.625 6.625 1 7 C0.34 6.34 -0.32 5.68 -1 5 C-0.625 2.375 -0.625 2.375 0 0 Z " fill="#CDD2D5" transform="translate(120,21)"/>
<path d="M0 0 C1.65 0.33 3.3 0.66 5 1 C3 3 3 3 1 4 C0.67 4.99 0.34 5.98 0 7 C-0.99 7.33 -1.98 7.66 -3 8 C-3.99 7.01 -4.98 6.02 -6 5 C-5.195625 4.54625 -4.39125 4.0925 -3.5625 3.625 C-0.91143428 2.25274335 -0.91143428 2.25274335 0 0 Z " fill="#E6E8E8" transform="translate(90,54)"/>
<path d="M0 0 C0.33 0.66 0.66 1.32 1 2 C-0.1796875 4.3828125 -0.1796875 4.3828125 -1.875 7.125 C-2.42929687 8.03507812 -2.98359375 8.94515625 -3.5546875 9.8828125 C-4.03164063 10.58148438 -4.50859375 11.28015625 -5 12 C-5.33 12 -5.66 12 -6 12 C-5.125 5.25 -5.125 5.25 -4 3 C-3.34 3 -2.68 3 -2 3 C-2 2.34 -2 1.68 -2 1 C-1.34 0.67 -0.68 0.34 0 0 Z " fill="#B7C1CA" transform="translate(450,49)"/>
<path d="M0 0 C2.67901932 2.31881505 3.66204403 4.31814468 4.6875 7.6875 C4.93886719 8.49574219 5.19023438 9.30398437 5.44921875 10.13671875 C5.63097656 10.75160156 5.81273438 11.36648437 6 12 C5.01 12.66 4.02 13.32 3 14 C2 12 2 12 2 8 C1.34742127 6.327767 0.68132451 4.66072849 0 3 C0 2.01 0 1.02 0 0 Z " fill="#ACBAC4" transform="translate(96,19)"/>
<path d="M0 0 C0.78375 0.04125 1.5675 0.0825 2.375 0.125 C2.375 0.785 2.375 1.445 2.375 2.125 C4.355 2.125 6.335 2.125 8.375 2.125 C9.5 5.875 9.5 5.875 8.375 8.125 C7.6634375 7.196875 7.6634375 7.196875 6.9375 6.25 C3.39695453 3.3139379 -0.16327956 2.84955289 -4.625 2.125 C-2.625 0.125 -2.625 0.125 0 0 Z " fill="#939EA5" transform="translate(425.625,21.875)"/>
<path d="M0 0 C1.65 0.33 3.3 0.66 5 1 C3.515 2.485 3.515 2.485 2 4 C3.32 4.33 4.64 4.66 6 5 C5.67 5.99 5.34 6.98 5 8 C1.7 7.34 -1.6 6.68 -5 6 C-3.68 5.01 -2.36 4.02 -1 3 C-0.67 2.01 -0.34 1.02 0 0 Z " fill="#C5CCD1" transform="translate(82,13)"/>
<path d="M0 0 C0.66 0 1.32 0 2 0 C2.33 1.32 2.66 2.64 3 4 C2.34 4 1.68 4 1 4 C1 4.66 1 5.32 1 6 C1.66 6 2.32 6 3 6 C2.67 7.65 2.34 9.3 2 11 C1.01 10.34 0.02 9.68 -1 9 C-1.47114738 6.2572492 -1.17805784 3.80441103 -1 1 C-0.67 0.67 -0.34 0.34 0 0 Z " fill="#E3E9EB" transform="translate(254,48)"/>
<path d="M0 0 C0.99 0.33 1.98 0.66 3 1 C3.27561917 3.26786642 3.51971457 5.53958279 3.75 7.8125 C3.88921875 9.07707031 4.0284375 10.34164062 4.171875 11.64453125 C4 15 4 15 2.015625 16.94921875 C1.35046875 17.29597656 0.6853125 17.64273438 0 18 C0.165 17.34 0.33 16.68 0.5 16 C1.4032273 10.58063618 1.3371279 5.34851158 0 0 Z " fill="#9EB8C1" transform="translate(435,30)"/>
<path d="M0 0 C-0.33 1.32 -0.66 2.64 -1 4 C-5.79300133 5.39151652 -10.15135782 4.68662689 -15 4 C-15 3.67 -15 3.34 -15 3 C-14.22914063 2.86722656 -13.45828125 2.73445313 -12.6640625 2.59765625 C-11.66117187 2.42105469 -10.65828125 2.24445312 -9.625 2.0625 C-8.62726563 1.88847656 -7.62953125 1.71445312 -6.6015625 1.53515625 C-4.17911891 1.03684578 -2.44449381 0 0 0 Z " fill="#7492A2" transform="translate(285,57)"/>
<path d="M0 0 C4.62 0 9.24 0 14 0 C14 2.31 14 4.62 14 7 C13.34 7 12.68 7 12 7 C11.67 5.35 11.34 3.7 11 2 C7.37 1.67 3.74 1.34 0 1 C0 0.67 0 0.34 0 0 Z " fill="#ABC4D1" transform="translate(324,11)"/>
<path d="M0 0 C3.625 -0.1875 3.625 -0.1875 7 0 C7 1.65 7 3.3 7 5 C5.35 5 3.7 5 2 5 C2 4.01 2 3.02 2 2 C0.68 2.33 -0.64 2.66 -2 3 C-1.34 2.01 -0.68 1.02 0 0 Z " fill="#E6ECEB" transform="translate(42,15)"/>
<path d="M0 0 C3.3125 -0.25 3.3125 -0.25 7 0 C8.9375 1.8125 8.9375 1.8125 10 4 C10 4.99 10 5.98 10 7 C9.01 7 8.02 7 7 7 C6.67 5.35 6.34 3.7 6 2 C3.03 1.505 3.03 1.505 0 1 C0 0.67 0 0.34 0 0 Z " fill="#B8CFDC" transform="translate(109,11)"/>
<path d="M0 0 C0.33 0.99 0.66 1.98 1 3 C1.66 3 2.32 3 3 3 C2.67 3.99 2.34 4.98 2 6 C-0.31 5.67 -2.62 5.34 -5 5 C-4 2 -4 2 -1.9375 0.8125 C-1.298125 0.544375 -0.65875 0.27625 0 0 Z " fill="#E1EAEB" transform="translate(65,50)"/>
<path d="M0 0 C0.33 0 0.66 0 1 0 C1 1.98 1 3.96 1 6 C-1.31 6 -3.62 6 -6 6 C-5.67 5.01 -5.34 4.02 -5 3 C-4.01 3 -3.02 3 -2 3 C-1.34 2.01 -0.68 1.02 0 0 Z " fill="#DEE9F1" transform="translate(201,61)"/>
<path d="M0 0 C1.875 0.875 1.875 0.875 3.875 2.875 C3.545 3.865 3.215 4.855 2.875 5.875 C2.545 5.215 2.215 4.555 1.875 3.875 C-0.765 3.875 -3.405 3.875 -6.125 3.875 C-2.70224958 -0.15895586 -2.70224958 -0.15895586 0 0 Z " fill="#7FA1B2" transform="translate(291.125,53.125)"/>
<path d="M0 0 C4.95 0.99 4.95 0.99 10 2 C10 2.99 10 3.98 10 5 C5.2482602 4.56802365 3.07999946 3.67230705 0 0 Z " fill="#C4D1D3" transform="translate(50,45)"/>
<path d="M0 0 C4.39158329 1.4638611 4.87947433 3.97831338 7 8 C6.01 8.495 6.01 8.495 5 9 C5 8.01 5 7.02 5 6 C4.01 6 3.02 6 2 6 C0.3125 3.5 0.3125 3.5 -1 1 C-0.67 0.67 -0.34 0.34 0 0 Z " fill="#A4B3C2" transform="translate(187,43)"/>
<path d="M0 0 C0.66 0 1.32 0 2 0 C1.25 6.625 1.25 6.625 -1 10 C-1.66 10 -2.32 10 -3 10 C-2.69201674 8.51988629 -2.378482 7.04092675 -2.0625 5.5625 C-1.88847656 4.73878906 -1.71445313 3.91507813 -1.53515625 3.06640625 C-1 1 -1 1 0 0 Z " fill="#81A3B6" transform="translate(11,25)"/>
<path d="M0 0 C2.64 0.33 5.28 0.66 8 1 C7.67 1.66 7.34 2.32 7 3 C4.69 3 2.38 3 0 3 C0 2.01 0 1.02 0 0 Z " fill="#A1AEBC" transform="translate(271,66)"/>
<path d="M0 0 C1.32 0.33 2.64 0.66 4 1 C1.69 2.65 -0.62 4.3 -3 6 C-3.66 5.67 -4.32 5.34 -5 5 C-2.75 2.4375 -2.75 2.4375 0 0 Z " fill="#ADB9C3" transform="translate(48,61)"/>
<path d="M0 0 C3.4375 0.8125 3.4375 0.8125 7 2 C7.33 2.99 7.66 3.98 8 5 C8.66 5.66 9.32 6.32 10 7 C5.61308455 6.49381745 3.15608721 3.86917019 0 1 C0 0.67 0 0.34 0 0 Z " fill="#8CA8B7" transform="translate(62,58)"/>
<path d="M0 0 C1.98 1.65 3.96 3.3 6 5 C5.34 5.66 4.68 6.32 4 7 C3.401875 6.34 2.80375 5.68 2.1875 5 C0.12498166 2.6626154 0.12498166 2.6626154 -3 3 C-2.01 2.01 -1.02 1.02 0 0 Z " fill="#A3BCCA" transform="translate(48,54)"/>
<path d="M0 0 C0.33 0.66 0.66 1.32 1 2 C-1.20927127 5.48832306 -3.08597051 6.73058503 -7 8 C-7 7.01 -7 6.02 -7 5 C-5.46875 3.61328125 -5.46875 3.61328125 -3.5 2.3125 C-2.8503125 1.87550781 -2.200625 1.43851563 -1.53125 0.98828125 C-1.0259375 0.66214844 -0.520625 0.33601563 0 0 Z " fill="#A1B5BC" transform="translate(90,52)"/>
<path d="M0 0 C0.33 0.66 0.66 1.32 1 2 C0.0625 4.125 0.0625 4.125 -1 6 C-2.32 6 -3.64 6 -5 6 C-5.33 6.66 -5.66 7.32 -6 8 C-6.66 7.34 -7.32 6.68 -8 6 C-7.05125 5.38125 -6.1025 4.7625 -5.125 4.125 C-2.05554891 2.18029031 -2.05554891 2.18029031 0 0 Z " fill="#8AA3B2" transform="translate(434,48)"/>
<path d="M0 0 C4.08378283 0.74250597 8.01939223 1.82923301 12 3 C12 3.33 12 3.66 12 4 C3.42857143 4.28571429 3.42857143 4.28571429 0 2 C0 1.34 0 0.68 0 0 Z " fill="#6E7D8E" transform="translate(25,65)"/>
<path d="M0 0 C1.1446875 0.3403125 1.1446875 0.3403125 2.3125 0.6875 C-1.4375 3.6875 -1.4375 3.6875 -3.6875 3.6875 C-4.0175 4.6775 -4.3475 5.6675 -4.6875 6.6875 C-5.375 4.875 -5.375 4.875 -5.6875 2.6875 C-3.97309355 -0.07459928 -3.26180423 -0.37927956 0 0 Z " fill="#A3ADB6" transform="translate(27.6875,17.3125)"/>
<path d="M0 0 C0.625 1.875 0.625 1.875 1 4 C-1 6 -1 6 -3.625 6.125 C-4.40875 6.08375 -5.1925 6.0425 -6 6 C-6 5.34 -6 4.68 -6 4 C-4.03852126 2.61061923 -2.03833424 1.2739589 0 0 Z " fill="#E2EBF1" transform="translate(263,13)"/>
<path d="M0 0 C0.33 0.66 0.66 1.32 1 2 C1.99 2 2.98 2 4 2 C4.625 3.8125 4.625 3.8125 5 6 C4.01 7.485 4.01 7.485 3 9 C0 3.375 0 3.375 0 0 Z " fill="#8C9FA8" transform="translate(249,48)"/>
<path d="M0 0 C0.99 0 1.98 0 3 0 C3.99 1.98 4.98 3.96 6 6 C5.34 6.66 4.68 7.32 4 8 C0 2.25 0 2.25 0 0 Z " fill="#A4BBC6" transform="translate(190,59)"/>
<path d="M0 0 C0 0.66 0 1.32 0 2 C-0.99 2.495 -0.99 2.495 -2 3 C-3.0409066 4.64142963 -4.04504326 6.30712215 -5 8 C-5.75 6.25 -5.75 6.25 -6 4 C-2.77777778 0 -2.77777778 0 0 0 Z " fill="#39A1D5" transform="translate(75,30)"/>
<path d="M0 0 C0.99 0.33 1.98 0.66 3 1 C2.01 1.495 2.01 1.495 1 2 C1.66 2.66 2.32 3.32 3 4 C1.02 4.66 -0.96 5.32 -3 6 C-2.625 3.5625 -2.625 3.5625 -2 1 C-1.34 0.67 -0.68 0.34 0 0 Z " fill="#B1BDC1" transform="translate(267,15)"/>
<path d="M0 0 C-0.33 0.99 -0.66 1.98 -1 3 C-2.65 3 -4.3 3 -6 3 C-6 2.01 -6 1.02 -6 0 C-3.50907189 -1.24546405 -2.58919267 -0.7767578 0 0 Z " fill="#B4C9D6" transform="translate(72,14)"/>
<path d="M0 0 C2.97 0 5.94 0 9 0 C9.33 0.66 9.66 1.32 10 2 C6.7 2.33 3.4 2.66 0 3 C0 2.01 0 1.02 0 0 Z " fill="#98BFCC" transform="translate(298,10)"/>
<path d="M0 0 C3.96 0.33 7.92 0.66 12 1 C7.78370866 3.10814567 5.60209225 3.17700355 1 3 C0.67 2.01 0.34 1.02 0 0 Z " fill="#DBE9EF" transform="translate(267,60)"/>
<path d="M0 0 C2.31 1.98 4.62 3.96 7 6 C6.01 6.495 6.01 6.495 5 7 C4.01 6.67 3.02 6.34 2 6 C2 5.01 2 4.02 2 3 C1.34 3 0.68 3 0 3 C0 2.01 0 1.02 0 0 Z " fill="#95A6B2" transform="translate(66,50)"/>
<path d="M0 0 C0.99 0.33 1.98 0.66 3 1 C3 2.98 3 4.96 3 7 C2.67 6.01 2.34 5.02 2 4 C0.68 4.33 -0.64 4.66 -2 5 C-1.34 3.35 -0.68 1.7 0 0 Z " fill="#AABAC0" transform="translate(98,44)"/>
<path d="M0 0 C2.475 0.99 2.475 0.99 5 2 C4.34 3.32 3.68 4.64 3 6 C3 5.34 3 4.68 3 4 C2.01 3.67 1.02 3.34 0 3 C0 2.01 0 1.02 0 0 Z " fill="#E8E6E6" transform="translate(177,34)"/>
<path d="M0 0 C-0.33 0.99 -0.66 1.98 -1 3 C-2.98 3.33 -4.96 3.66 -7 4 C-7 3.34 -7 2.68 -7 2 C-4 0 -4 0 0 0 Z " fill="#99B4C0" transform="translate(28,11)"/>
<path d="M0 0 C0.66 0.66 1.32 1.32 2 2 C1.34 2 0.68 2 0 2 C0 1.34 0 0.68 0 0 Z " fill="#00155C" transform="translate(248,15)"/>
<path d="" fill="#000000" transform="translate(0,0)"/>
<path d="" fill="#40407F" transform="translate(0,0)"/>
</svg>
